# MagicaVoxel @ Ephtracy

# group
o 

# material
mtllib Character_Body.mtl
usemtl palette

# normals
vn -1 0 0
vn 1 0 0
vn 0 0 1
vn 0 0 -1
vn 0 -1 0
vn 0 1 0

# texcoords
vt 0.404297 0.5
vt 0.548828 0.5
vt 0.962891 0.5
vt 0.994141 0.5

# verts
v -0.6 1.4 0.3
v -0.6 1.4 -0.3
v -0.6 2.1 0.3
v -0.6 2.1 -0.3
v -0.5 2.1 0.3
v -0.5 2.1 -0.3
v -0.5 2.2 0.3
v -0.5 2.2 -0.3
v -0.4 0.6 0.3
v -0.4 0.6 -0.3
v -0.4 1.4 0.3
v -0.4 1.4 -0.3
v -0.4 2.2 0.3
v -0.4 2.2 -0.3
v -0.4 2.3 0.3
v -0.4 2.3 -0.3
v -0.3 1.6 -0.3
v -0.3 1.6 -0.4
v -0.3 2.3 -0.3
v -0.3 2.3 -0.4
v -0.2 1.8 0.2
v -0.2 1.8 0.1
v -0.2 1.8 -0.4
v -0.2 1.8 -0.5
v -0.2 2 0.2
v -0.2 2 0.1
v -0.2 2.3 -0.4
v -0.2 2.3 -0.5
v -0.1 1.9 -0.5
v -0.1 1.9 -0.6
v -0.1 2.3 -0.5
v -0.1 2.3 -0.6
v -5.96046e-08 2.1 -0.6
v -5.96046e-08 2.1 -0.7
v -5.96046e-08 2.3 -0.6
v -5.96046e-08 2.3 -0.7
v 0.2 1.8 0.2
v 0.2 1.8 0.1
v 0.2 2 0.2
v 0.2 2 0.1
v 0.5 2.1 0.3
v 0.5 2.1 0.1
v 0.5 2.2 0.3
v 0.5 2.2 0.1
v 0.6 1.6 0.2
v 0.6 1.6 0.1
v 0.6 2 0.3
v 0.6 2 0.2
v 0.6 2 0.1
v 0.6 2.1 0.3
v 0.6 2.1 0.1
v 0.7 1.5 0.3
v 0.7 1.5 0.2
v 0.7 2 0.3
v 0.7 2 0.2
v -0.5 1.5 0.3
v -0.5 1.5 0.2
v -0.5 2 0.3
v -0.5 2 0.2
v -0.4 1.6 0.2
v -0.4 1.6 0.1
v -0.4 2 0.3
v -0.4 2 0.2
v -0.4 2 0.1
v -0.4 2.1 0.3
v -0.4 2.1 0.1
v -0.3 2.1 0.3
v -0.3 2.1 0.1
v -0.3 2.2 0.3
v -0.3 2.2 0.1
v -5.96046e-08 1.8 0.2
v -5.96046e-08 1.8 0.1
v -5.96046e-08 2 0.2
v -5.96046e-08 2 0.1
v 0.2 2.1 -0.6
v 0.2 2.1 -0.7
v 0.2 2.3 -0.6
v 0.2 2.3 -0.7
v 0.3 1.9 -0.5
v 0.3 1.9 -0.6
v 0.3 2.3 -0.5
v 0.3 2.3 -0.6
v 0.4 1.8 0.2
v 0.4 1.8 0.1
v 0.4 1.8 -0.4
v 0.4 1.8 -0.5
v 0.4 2 0.2
v 0.4 2 0.1
v 0.4 2.3 -0.4
v 0.4 2.3 -0.5
v 0.5 1.6 -0.3
v 0.5 1.6 -0.4
v 0.5 2.3 -0.3
v 0.5 2.3 -0.4
v 0.6 0.6 0.3
v 0.6 0.6 -0.3
v 0.6 1.4 0.3
v 0.6 1.4 -0.3
v 0.6 2.2 0.3
v 0.6 2.2 -0.3
v 0.6 2.3 0.3
v 0.6 2.3 -0.3
v 0.7 2.1 0.3
v 0.7 2.1 -0.3
v 0.7 2.2 0.3
v 0.7 2.2 -0.3
v 0.8 1.4 0.3
v 0.8 1.4 -0.3
v 0.8 2.1 0.3
v 0.8 2.1 -0.3
v -0.6 1.4 0.3
v -0.6 2.1 0.3
v -0.5 1.5 0.3
v -0.5 2 0.3
v -0.5 2.1 0.3
v -0.5 2.2 0.3
v -0.4 0.6 0.3
v -0.4 1.4 0.3
v -0.4 2 0.3
v -0.4 2.1 0.3
v -0.4 2.2 0.3
v -0.4 2.3 0.3
v -0.3 2.1 0.3
v -0.3 2.2 0.3
v 0.5 2.1 0.3
v 0.5 2.2 0.3
v 0.6 0.6 0.3
v 0.6 1.4 0.3
v 0.6 2 0.3
v 0.6 2.1 0.3
v 0.6 2.2 0.3
v 0.6 2.3 0.3
v 0.7 1.5 0.3
v 0.7 2 0.3
v 0.7 2.1 0.3
v 0.7 2.2 0.3
v 0.8 1.4 0.3
v 0.8 2.1 0.3
v -0.5 1.5 0.2
v -0.5 2 0.2
v -0.4 1.6 0.2
v -0.4 2 0.2
v -0.2 1.8 0.2
v -0.2 2 0.2
v -5.96046e-08 1.8 0.2
v -5.96046e-08 2 0.2
v 0.2 1.8 0.2
v 0.2 2 0.2
v 0.4 1.8 0.2
v 0.4 2 0.2
v 0.6 1.6 0.2
v 0.6 2 0.2
v 0.7 1.5 0.2
v 0.7 2 0.2
v -0.4 1.6 0.1
v -0.4 2 0.1
v -0.4 2.1 0.1
v -0.3 2.1 0.1
v -0.3 2.2 0.1
v -0.2 1.8 0.1
v -0.2 2 0.1
v -5.96046e-08 1.8 0.1
v -5.96046e-08 2 0.1
v 0.2 1.8 0.1
v 0.2 2 0.1
v 0.4 1.8 0.1
v 0.4 2 0.1
v 0.5 2.1 0.1
v 0.5 2.2 0.1
v 0.6 1.6 0.1
v 0.6 2 0.1
v 0.6 2.1 0.1
v -0.6 1.4 -0.3
v -0.6 2.1 -0.3
v -0.5 2.1 -0.3
v -0.5 2.2 -0.3
v -0.4 0.6 -0.3
v -0.4 1.4 -0.3
v -0.4 2.2 -0.3
v -0.4 2.3 -0.3
v -0.3 1.6 -0.3
v -0.3 2.3 -0.3
v 0.5 1.6 -0.3
v 0.5 2.3 -0.3
v 0.6 0.6 -0.3
v 0.6 1.4 -0.3
v 0.6 2.2 -0.3
v 0.6 2.3 -0.3
v 0.7 2.1 -0.3
v 0.7 2.2 -0.3
v 0.8 1.4 -0.3
v 0.8 2.1 -0.3
v -0.3 1.6 -0.4
v -0.3 2.3 -0.4
v -0.2 1.8 -0.4
v -0.2 2.3 -0.4
v 0.4 1.8 -0.4
v 0.4 2.3 -0.4
v 0.5 1.6 -0.4
v 0.5 2.3 -0.4
v -0.2 1.8 -0.5
v -0.2 2.3 -0.5
v -0.1 1.9 -0.5
v -0.1 2.3 -0.5
v 0.3 1.9 -0.5
v 0.3 2.3 -0.5
v 0.4 1.8 -0.5
v 0.4 2.3 -0.5
v -0.1 1.9 -0.6
v -0.1 2.3 -0.6
v -5.96046e-08 2.1 -0.6
v -5.96046e-08 2.3 -0.6
v 0.2 2.1 -0.6
v 0.2 2.3 -0.6
v 0.3 1.9 -0.6
v 0.3 2.3 -0.6
v -5.96046e-08 2.1 -0.7
v -5.96046e-08 2.3 -0.7
v 0.2 2.1 -0.7
v 0.2 2.3 -0.7
v -0.4 0.6 0.3
v 0.6 0.6 0.3
v -0.4 0.6 -0.3
v 0.6 0.6 -0.3
v -0.6 1.4 0.3
v -0.4 1.4 0.3
v 0.6 1.4 0.3
v 0.8 1.4 0.3
v -0.6 1.4 -0.3
v -0.4 1.4 -0.3
v 0.6 1.4 -0.3
v 0.8 1.4 -0.3
v -0.3 1.6 -0.3
v 0.5 1.6 -0.3
v -0.3 1.6 -0.4
v 0.5 1.6 -0.4
v -0.2 1.8 0.2
v -5.96046e-08 1.8 0.2
v 0.2 1.8 0.2
v 0.4 1.8 0.2
v -0.2 1.8 0.1
v -5.96046e-08 1.8 0.1
v 0.2 1.8 0.1
v 0.4 1.8 0.1
v -0.2 1.8 -0.4
v 0.4 1.8 -0.4
v -0.2 1.8 -0.5
v 0.4 1.8 -0.5
v -0.1 1.9 -0.5
v 0.3 1.9 -0.5
v -0.1 1.9 -0.6
v 0.3 1.9 -0.6
v -0.5 2 0.3
v -0.4 2 0.3
v 0.6 2 0.3
v 0.7 2 0.3
v -0.5 2 0.2
v -0.4 2 0.2
v 0.6 2 0.2
v 0.7 2 0.2
v -0.4 2.1 0.3
v -0.3 2.1 0.3
v 0.5 2.1 0.3
v 0.6 2.1 0.3
v -0.4 2.1 0.1
v -0.3 2.1 0.1
v 0.5 2.1 0.1
v 0.6 2.1 0.1
v -5.96046e-08 2.1 -0.6
v 0.2 2.1 -0.6
v -5.96046e-08 2.1 -0.7
v 0.2 2.1 -0.7
v -0.3 2.2 0.3
v 0.5 2.2 0.3
v -0.3 2.2 0.1
v 0.5 2.2 0.1
v -0.5 1.5 0.3
v 0.7 1.5 0.3
v -0.5 1.5 0.2
v 0.7 1.5 0.2
v -0.4 1.6 0.2
v 0.6 1.6 0.2
v -0.4 1.6 0.1
v 0.6 1.6 0.1
v -0.2 2 0.2
v -5.96046e-08 2 0.2
v 0.2 2 0.2
v 0.4 2 0.2
v -0.2 2 0.1
v -5.96046e-08 2 0.1
v 0.2 2 0.1
v 0.4 2 0.1
v -0.6 2.1 0.3
v -0.5 2.1 0.3
v 0.7 2.1 0.3
v 0.8 2.1 0.3
v -0.6 2.1 -0.3
v -0.5 2.1 -0.3
v 0.7 2.1 -0.3
v 0.8 2.1 -0.3
v -0.5 2.2 0.3
v -0.4 2.2 0.3
v 0.6 2.2 0.3
v 0.7 2.2 0.3
v -0.5 2.2 -0.3
v -0.4 2.2 -0.3
v 0.6 2.2 -0.3
v 0.7 2.2 -0.3
v -0.4 2.3 0.3
v 0.6 2.3 0.3
v -0.4 2.3 -0.3
v -0.3 2.3 -0.3
v 0.5 2.3 -0.3
v 0.6 2.3 -0.3
v -0.3 2.3 -0.4
v -0.2 2.3 -0.4
v 0.4 2.3 -0.4
v 0.5 2.3 -0.4
v -0.2 2.3 -0.5
v -0.1 2.3 -0.5
v 0.3 2.3 -0.5
v 0.4 2.3 -0.5
v -0.1 2.3 -0.6
v -5.96046e-08 2.3 -0.6
v 0.2 2.3 -0.6
v 0.3 2.3 -0.6
v -5.96046e-08 2.3 -0.7
v 0.2 2.3 -0.7

# faces
f 3/1/1 2/1/1 1/1/1
f 4/1/1 2/1/1 3/1/1
f 7/1/1 6/1/1 5/1/1
f 8/1/1 6/1/1 7/1/1
f 11/1/1 10/1/1 9/1/1
f 12/1/1 10/1/1 11/1/1
f 15/1/1 14/1/1 13/1/1
f 16/1/1 14/1/1 15/1/1
f 19/1/1 18/1/1 17/1/1
f 20/1/1 18/1/1 19/1/1
f 25/3/1 22/3/1 21/3/1
f 26/3/1 22/3/1 25/3/1
f 27/1/1 24/1/1 23/1/1
f 28/1/1 24/1/1 27/1/1
f 31/1/1 30/1/1 29/1/1
f 32/1/1 30/1/1 31/1/1
f 35/1/1 34/1/1 33/1/1
f 36/1/1 34/1/1 35/1/1
f 39/3/1 38/3/1 37/3/1
f 40/3/1 38/3/1 39/3/1
f 43/1/1 42/1/1 41/1/1
f 44/1/1 42/1/1 43/1/1
f 48/2/1 46/2/1 45/2/1
f 49/2/1 46/2/1 48/2/1
f 50/1/1 48/1/1 47/1/1
f 50/1/1 49/1/1 48/1/1
f 51/1/1 49/1/1 50/1/1
f 54/1/1 53/1/1 52/1/1
f 55/1/1 53/1/1 54/1/1
f 56/1/2 57/1/2 58/1/2
f 58/1/2 57/1/2 59/1/2
f 60/2/2 61/2/2 63/2/2
f 63/2/2 61/2/2 64/2/2
f 62/1/2 63/1/2 65/1/2
f 63/1/2 64/1/2 65/1/2
f 65/1/2 64/1/2 66/1/2
f 67/1/2 68/1/2 69/1/2
f 69/1/2 68/1/2 70/1/2
f 71/3/2 72/3/2 73/3/2
f 73/3/2 72/3/2 74/3/2
f 75/1/2 76/1/2 77/1/2
f 77/1/2 76/1/2 78/1/2
f 79/1/2 80/1/2 81/1/2
f 81/1/2 80/1/2 82/1/2
f 83/3/2 84/3/2 87/3/2
f 87/3/2 84/3/2 88/3/2
f 85/1/2 86/1/2 89/1/2
f 89/1/2 86/1/2 90/1/2
f 91/1/2 92/1/2 93/1/2
f 93/1/2 92/1/2 94/1/2
f 95/1/2 96/1/2 97/1/2
f 97/1/2 96/1/2 98/1/2
f 99/1/2 100/1/2 101/1/2
f 101/1/2 100/1/2 102/1/2
f 103/1/2 104/1/2 105/1/2
f 105/1/2 104/1/2 106/1/2
f 107/1/2 108/1/2 109/1/2
f 109/1/2 108/1/2 110/1/2
f 113/1/3 112/1/3 111/1/3
f 114/1/3 112/1/3 113/1/3
f 115/1/3 112/1/3 114/1/3
f 118/1/3 113/1/3 111/1/3
f 119/1/3 115/1/3 114/1/3
f 119/1/3 116/1/3 115/1/3
f 120/1/3 116/1/3 119/1/3
f 121/1/3 116/1/3 120/1/3
f 123/1/3 122/1/3 121/1/3
f 123/1/3 121/1/3 120/1/3
f 124/1/3 122/1/3 123/1/3
f 126/1/3 122/1/3 124/1/3
f 127/1/3 118/1/3 117/1/3
f 128/1/3 113/1/3 118/1/3
f 128/1/3 118/1/3 127/1/3
f 130/1/3 126/1/3 125/1/3
f 131/1/3 122/1/3 126/1/3
f 131/1/3 126/1/3 130/1/3
f 132/1/3 122/1/3 131/1/3
f 133/1/3 113/1/3 128/1/3
f 134/1/3 130/1/3 129/1/3
f 134/1/3 131/1/3 130/1/3
f 135/1/3 131/1/3 134/1/3
f 136/1/3 131/1/3 135/1/3
f 137/1/3 133/1/3 128/1/3
f 137/1/3 134/1/3 133/1/3
f 137/1/3 135/1/3 134/1/3
f 138/1/3 135/1/3 137/1/3
f 141/2/3 140/2/3 139/2/3
f 142/2/3 140/2/3 141/2/3
f 145/3/3 144/3/3 143/3/3
f 146/3/3 144/3/3 145/3/3
f 149/3/3 148/3/3 147/3/3
f 150/3/3 148/3/3 149/3/3
f 151/2/3 141/2/3 139/2/3
f 153/2/3 151/2/3 139/2/3
f 153/2/3 152/2/3 151/2/3
f 154/2/3 152/2/3 153/2/3
f 158/4/3 156/4/3 155/4/3
f 158/4/3 157/4/3 156/4/3
f 160/4/3 158/4/3 155/4/3
f 160/4/3 159/4/3 158/4/3
f 161/4/3 159/4/3 160/4/3
f 162/4/3 160/4/3 155/4/3
f 163/4/3 159/4/3 161/4/3
f 164/4/3 162/4/3 155/4/3
f 164/4/3 163/4/3 162/4/3
f 165/4/3 159/4/3 163/4/3
f 165/4/3 163/4/3 164/4/3
f 166/4/3 164/4/3 155/4/3
f 167/4/3 159/4/3 165/4/3
f 168/4/3 159/4/3 167/4/3
f 168/4/3 167/4/3 166/4/3
f 169/4/3 159/4/3 168/4/3
f 170/4/3 166/4/3 155/4/3
f 170/4/3 168/4/3 166/4/3
f 171/4/3 168/4/3 170/4/3
f 172/4/3 168/4/3 171/4/3
f 173/1/4 174/1/4 175/1/4
f 173/1/4 175/1/4 178/1/4
f 175/1/4 176/1/4 178/1/4
f 178/1/4 176/1/4 179/1/4
f 177/1/4 178/1/4 181/1/4
f 179/1/4 180/1/4 181/1/4
f 178/1/4 179/1/4 181/1/4
f 181/1/4 180/1/4 182/1/4
f 177/1/4 181/1/4 183/1/4
f 177/1/4 183/1/4 185/1/4
f 183/1/4 184/1/4 185/1/4
f 185/1/4 184/1/4 186/1/4
f 186/1/4 184/1/4 187/1/4
f 187/1/4 184/1/4 188/1/4
f 186/1/4 187/1/4 189/1/4
f 189/1/4 187/1/4 190/1/4
f 186/1/4 189/1/4 191/1/4
f 191/1/4 189/1/4 192/1/4
f 193/1/4 194/1/4 195/1/4
f 195/1/4 194/1/4 196/1/4
f 193/1/4 195/1/4 197/1/4
f 193/1/4 197/1/4 199/1/4
f 197/1/4 198/1/4 199/1/4
f 199/1/4 198/1/4 200/1/4
f 201/1/4 202/1/4 203/1/4
f 203/1/4 202/1/4 204/1/4
f 201/1/4 203/1/4 205/1/4
f 201/1/4 205/1/4 207/1/4
f 205/1/4 206/1/4 207/1/4
f 207/1/4 206/1/4 208/1/4
f 209/1/4 210/1/4 211/1/4
f 211/1/4 210/1/4 212/1/4
f 209/1/4 211/1/4 213/1/4
f 209/1/4 213/1/4 215/1/4
f 213/1/4 214/1/4 215/1/4
f 215/1/4 214/1/4 216/1/4
f 217/1/4 218/1/4 219/1/4
f 219/1/4 218/1/4 220/1/4
f 223/1/5 222/1/5 221/1/5
f 224/1/5 222/1/5 223/1/5
f 229/1/5 226/1/5 225/1/5
f 230/1/5 226/1/5 229/1/5
f 231/1/5 228/1/5 227/1/5
f 232/1/5 228/1/5 231/1/5
f 235/1/5 234/1/5 233/1/5
f 236/1/5 234/1/5 235/1/5
f 241/3/5 238/3/5 237/3/5
f 242/3/5 238/3/5 241/3/5
f 243/3/5 240/3/5 239/3/5
f 244/3/5 240/3/5 243/3/5
f 247/1/5 246/1/5 245/1/5
f 248/1/5 246/1/5 247/1/5
f 251/1/5 250/1/5 249/1/5
f 252/1/5 250/1/5 251/1/5
f 257/1/5 254/1/5 253/1/5
f 258/1/5 254/1/5 257/1/5
f 259/1/5 256/1/5 255/1/5
f 260/1/5 256/1/5 259/1/5
f 265/1/5 262/1/5 261/1/5
f 266/1/5 262/1/5 265/1/5
f 267/1/5 264/1/5 263/1/5
f 268/1/5 264/1/5 267/1/5
f 271/1/5 270/1/5 269/1/5
f 272/1/5 270/1/5 271/1/5
f 275/1/5 274/1/5 273/1/5
f 276/1/5 274/1/5 275/1/5
f 277/1/6 278/1/6 279/1/6
f 279/1/6 278/1/6 280/1/6
f 281/2/6 282/2/6 283/2/6
f 283/2/6 282/2/6 284/2/6
f 285/3/6 286/3/6 289/3/6
f 289/3/6 286/3/6 290/3/6
f 287/3/6 288/3/6 291/3/6
f 291/3/6 288/3/6 292/3/6
f 293/1/6 294/1/6 297/1/6
f 297/1/6 294/1/6 298/1/6
f 295/1/6 296/1/6 299/1/6
f 299/1/6 296/1/6 300/1/6
f 301/1/6 302/1/6 305/1/6
f 305/1/6 302/1/6 306/1/6
f 303/1/6 304/1/6 307/1/6
f 307/1/6 304/1/6 308/1/6
f 309/1/6 310/1/6 311/1/6
f 311/1/6 310/1/6 312/1/6
f 312/1/6 310/1/6 313/1/6
f 313/1/6 310/1/6 314/1/6
f 312/1/6 313/1/6 315/1/6
f 315/1/6 313/1/6 316/1/6
f 316/1/6 313/1/6 317/1/6
f 317/1/6 313/1/6 318/1/6
f 316/1/6 317/1/6 319/1/6
f 319/1/6 317/1/6 320/1/6
f 320/1/6 317/1/6 321/1/6
f 321/1/6 317/1/6 322/1/6
f 320/1/6 321/1/6 323/1/6
f 323/1/6 321/1/6 324/1/6
f 324/1/6 321/1/6 325/1/6
f 325/1/6 321/1/6 326/1/6
f 324/1/6 325/1/6 327/1/6
f 327/1/6 325/1/6 328/1/6
