# MagicaVoxel @ Ephtracy

# group
o 

# material
mtllib Obstacle_Fence.mtl
usemtl palette

# normals
vn -1 0 0
vn 1 0 0
vn 0 0 1
vn 0 0 -1
vn 0 -1 0
vn 0 1 0

# texcoords
vt 0.138672 0.5
vt 0.369141 0.5
vt 0.958984 0.5

# verts
v -2 0.8 0.1
v -2 0.8 0
v -2 1 0.1
v -2 1 0
v -2 1.1 0.1
v -2 1.1 0
v -2 1.5 0.1
v -2 1.5 0
v -2 1.8 0.1
v -2 1.8 0
v -1.5 0 0.1
v -1.5 0 -0.4
v -1.5 0.1 0.1
v -1.5 0.1 -0.4
v -1.4 0.1 0
v -1.4 0.1 -0.3
v -1.4 0.8 0
v -1.4 1.1 0
v -1.4 1.5 0
v -1.4 1.6 0
v -1.4 1.8 0
v -1.4 2 0
v -1.4 2 -0.3
v 1 0 0.1
v 1 0 -0.4
v 1 0.1 0.1
v 1 0.1 -0.4
v 1.1 0.1 0
v 1.1 0.1 -0.3
v 1.1 0.8 0
v 1.1 1.1 0
v 1.1 1.5 0
v 1.1 1.6 0
v 1.1 1.8 0
v 1.1 2 0
v 1.1 2 -0.3
v -1.1 0.1 0
v -1.1 0.1 -0.3
v -1.1 0.8 0
v -1.1 1.1 0
v -1.1 1.5 0
v -1.1 1.6 0
v -1.1 1.8 0
v -1.1 2 0
v -1.1 2 -0.3
v -1 0 0.1
v -1 0 -0.4
v -1 0.1 0.1
v -1 0.1 -0.4
v 1.4 0.1 0
v 1.4 0.1 -0.3
v 1.4 0.8 0
v 1.4 0.9 0
v 1.4 1.1 0
v 1.4 1.5 0
v 1.4 1.7 0
v 1.4 1.8 0
v 1.4 2 0
v 1.4 2 -0.3
v 1.5 0 0.1
v 1.5 0 -0.4
v 1.5 0.1 0.1
v 1.5 0.1 -0.4
v 2 0.8 0.1
v 2 0.8 0
v 2 1 0.1
v 2 1 0
v 2 1.1 0.1
v 2 1.1 0
v 2 1.5 0.1
v 2 1.5 0
v 2 1.8 0.1
v 2 1.8 0
v -2 0.8 0.1
v -2 1 0.1
v -2 1.1 0.1
v -2 1.5 0.1
v -2 1.8 0.1
v -1.9 1 0.1
v -1.9 1.1 0.1
v -1.8 1.5 0.1
v -1.8 1.6 0.1
v -1.7 0.8 0.1
v -1.7 0.9 0.1
v -1.7 1.6 0.1
v -1.7 1.7 0.1
v -1.6 0.9 0.1
v -1.6 1 0.1
v -1.6 1.7 0.1
v -1.6 1.8 0.1
v -1.5 0 0.1
v -1.5 0.1 0.1
v -1.5 1 0.1
v -1.5 1.1 0.1
v -1.5 1.5 0.1
v -1.5 1.6 0.1
v -1.4 0.8 0.1
v -1.4 0.9 0.1
v -1.4 1.6 0.1
v -1.4 1.7 0.1
v -1.3 0.9 0.1
v -1.3 1 0.1
v -1.3 1.7 0.1
v -1.3 1.8 0.1
v -1.2 1 0.1
v -1.2 1.1 0.1
v -1.1 1.5 0.1
v -1.1 1.6 0.1
v -1 0 0.1
v -1 0.1 0.1
v -1 0.8 0.1
v -1 0.9 0.1
v -1 1.6 0.1
v -1 1.7 0.1
v -0.9 0.9 0.1
v -0.9 1 0.1
v -0.9 1.7 0.1
v -0.9 1.8 0.1
v -0.8 1 0.1
v -0.8 1.1 0.1
v -0.8 1.5 0.1
v -0.8 1.6 0.1
v -0.7 0.8 0.1
v -0.7 0.9 0.1
v -0.7 1.6 0.1
v -0.7 1.7 0.1
v -0.6 0.9 0.1
v -0.6 1 0.1
v -0.6 1.7 0.1
v -0.6 1.8 0.1
v -0.5 1 0.1
v -0.5 1.1 0.1
v -0.4 1.5 0.1
v -0.4 1.6 0.1
v -0.3 0.8 0.1
v -0.3 0.9 0.1
v -0.3 1.6 0.1
v -0.3 1.7 0.1
v -0.2 0.9 0.1
v -0.2 1 0.1
v -0.2 1.7 0.1
v -0.2 1.8 0.1
v -0.0999999 1 0.1
v -0.0999999 1.1 0.1
v -0.0999999 1.5 0.1
v -0.0999999 1.6 0.1
v 2.38419e-07 0.8 0.1
v 2.38419e-07 0.9 0.1
v 2.38419e-07 1.6 0.1
v 2.38419e-07 1.7 0.1
v 0.1 0.9 0.1
v 0.1 1 0.1
v 0.1 1.7 0.1
v 0.1 1.8 0.1
v 0.2 1 0.1
v 0.2 1.1 0.1
v 0.3 1.5 0.1
v 0.3 1.6 0.1
v 0.4 0.8 0.1
v 0.4 0.9 0.1
v 0.4 1.6 0.1
v 0.4 1.7 0.1
v 0.5 0.9 0.1
v 0.5 1 0.1
v 0.5 1.7 0.1
v 0.5 1.8 0.1
v 0.6 1 0.1
v 0.6 1.1 0.1
v 0.6 1.5 0.1
v 0.6 1.6 0.1
v 0.7 0.8 0.1
v 0.7 0.9 0.1
v 0.7 1.6 0.1
v 0.7 1.7 0.1
v 0.8 0.9 0.1
v 0.8 1 0.1
v 0.8 1.7 0.1
v 0.8 1.8 0.1
v 0.9 1 0.1
v 0.9 1.1 0.1
v 1 0 0.1
v 1 0.1 0.1
v 1 1.5 0.1
v 1 1.6 0.1
v 1.1 0.8 0.1
v 1.1 0.9 0.1
v 1.1 1.6 0.1
v 1.1 1.7 0.1
v 1.2 0.9 0.1
v 1.2 1 0.1
v 1.2 1.7 0.1
v 1.2 1.8 0.1
v 1.3 1 0.1
v 1.3 1.1 0.1
v 1.3 1.5 0.1
v 1.3 1.6 0.1
v 1.4 0.8 0.1
v 1.4 0.9 0.1
v 1.4 1.6 0.1
v 1.4 1.7 0.1
v 1.5 0 0.1
v 1.5 0.1 0.1
v 1.5 0.9 0.1
v 1.5 1 0.1
v 1.5 1.7 0.1
v 1.5 1.8 0.1
v 1.6 1 0.1
v 1.6 1.1 0.1
v 1.7 1.5 0.1
v 1.7 1.6 0.1
v 1.8 0.8 0.1
v 1.8 0.9 0.1
v 1.8 1.6 0.1
v 1.8 1.7 0.1
v 1.9 0.9 0.1
v 1.9 1 0.1
v 1.9 1.7 0.1
v 1.9 1.8 0.1
v 2 0.8 0.1
v 2 1 0.1
v 2 1.1 0.1
v 2 1.5 0.1
v 2 1.8 0.1
v -1.4 0.1 0
v -1.4 0.8 0
v -1.4 1.1 0
v -1.4 1.5 0
v -1.4 1.8 0
v -1.4 2 0
v -1.3 1.8 0
v -1.2 1.1 0
v -1.1 0.1 0
v -1.1 0.8 0
v -1.1 1.1 0
v -1.1 1.5 0
v -1.1 1.8 0
v -1.1 2 0
v 1.1 0.1 0
v 1.1 0.8 0
v 1.1 1.1 0
v 1.1 1.5 0
v 1.1 1.8 0
v 1.1 2 0
v 1.2 1.8 0
v 1.3 1.1 0
v 1.3 1.5 0
v 1.4 0.1 0
v 1.4 0.8 0
v 1.4 1.1 0
v 1.4 1.5 0
v 1.4 1.8 0
v 1.4 2 0
v -2 0.8 0
v -2 1 0
v -2 1.1 0
v -2 1.5 0
v -2 1.8 0
v -1.9 1 0
v -1.9 1.1 0
v -1.8 1.5 0
v -1.8 1.6 0
v -1.7 0.8 0
v -1.7 0.9 0
v -1.7 1.6 0
v -1.7 1.7 0
v -1.6 0.9 0
v -1.6 1 0
v -1.6 1.7 0
v -1.6 1.8 0
v -1.5 1 0
v -1.5 1.1 0
v -1.5 1.5 0
v -1.5 1.6 0
v -1.4 0.8 0
v -1.4 1.1 0
v -1.4 1.5 0
v -1.4 1.6 0
v -1.4 1.8 0
v -1.1 0.8 0
v -1.1 1.1 0
v -1.1 1.5 0
v -1.1 1.6 0
v -1.1 1.8 0
v -1 0.8 0
v -1 0.9 0
v -1 1.6 0
v -1 1.7 0
v -0.9 0.9 0
v -0.9 1 0
v -0.9 1.7 0
v -0.9 1.8 0
v -0.8 1 0
v -0.8 1.1 0
v -0.8 1.5 0
v -0.8 1.6 0
v -0.7 0.8 0
v -0.7 0.9 0
v -0.7 1.6 0
v -0.7 1.7 0
v -0.6 0.9 0
v -0.6 1 0
v -0.6 1.7 0
v -0.6 1.8 0
v -0.5 1 0
v -0.5 1.1 0
v -0.4 1.5 0
v -0.4 1.6 0
v -0.3 0.8 0
v -0.3 0.9 0
v -0.3 1.6 0
v -0.3 1.7 0
v -0.2 0.9 0
v -0.2 1 0
v -0.2 1.7 0
v -0.2 1.8 0
v -0.0999999 1 0
v -0.0999999 1.1 0
v -0.0999999 1.5 0
v -0.0999999 1.6 0
v 2.38419e-07 0.8 0
v 2.38419e-07 0.9 0
v 2.38419e-07 1.6 0
v 2.38419e-07 1.7 0
v 0.1 0.9 0
v 0.1 1 0
v 0.1 1.7 0
v 0.1 1.8 0
v 0.2 1 0
v 0.2 1.1 0
v 0.3 1.5 0
v 0.3 1.6 0
v 0.4 0.8 0
v 0.4 0.9 0
v 0.4 1.6 0
v 0.4 1.7 0
v 0.5 0.9 0
v 0.5 1 0
v 0.5 1.7 0
v 0.5 1.8 0
v 0.6 1 0
v 0.6 1.1 0
v 0.6 1.5 0
v 0.6 1.6 0
v 0.7 0.8 0
v 0.7 0.9 0
v 0.7 1.6 0
v 0.7 1.7 0
v 0.8 0.9 0
v 0.8 1 0
v 0.8 1.7 0
v 0.8 1.8 0
v 0.9 1 0
v 0.9 1.1 0
v 1 1.5 0
v 1 1.6 0
v 1.1 0.8 0
v 1.1 1.1 0
v 1.1 1.5 0
v 1.1 1.6 0
v 1.1 1.8 0
v 1.4 0.8 0
v 1.4 0.9 0
v 1.4 1.1 0
v 1.4 1.5 0
v 1.4 1.7 0
v 1.4 1.8 0
v 1.5 0.9 0
v 1.5 1 0
v 1.5 1.7 0
v 1.5 1.8 0
v 1.6 1 0
v 1.6 1.1 0
v 1.7 1.5 0
v 1.7 1.6 0
v 1.8 0.8 0
v 1.8 0.9 0
v 1.8 1.6 0
v 1.8 1.7 0
v 1.9 0.9 0
v 1.9 1 0
v 1.9 1.7 0
v 1.9 1.8 0
v 2 0.8 0
v 2 1 0
v 2 1.1 0
v 2 1.5 0
v 2 1.8 0
v -1.4 0.1 -0.3
v -1.4 2 -0.3
v -1.1 0.1 -0.3
v -1.1 2 -0.3
v 1.1 0.1 -0.3
v 1.1 2 -0.3
v 1.4 0.1 -0.3
v 1.4 2 -0.3
v -1.5 0 -0.4
v -1.5 0.1 -0.4
v -1 0 -0.4
v -1 0.1 -0.4
v 1 0 -0.4
v 1 0.1 -0.4
v 1.5 0 -0.4
v 1.5 0.1 -0.4
v -1.5 0 0.1
v -1 0 0.1
v 1 0 0.1
v 1.5 0 0.1
v -1.5 0 -0.4
v -1 0 -0.4
v 1 0 -0.4
v 1.5 0 -0.4
v -2 0.8 0.1
v -1.7 0.8 0.1
v -1.4 0.8 0.1
v -1 0.8 0.1
v -0.7 0.8 0.1
v -0.3 0.8 0.1
v 2.38419e-07 0.8 0.1
v 0.4 0.8 0.1
v 0.7 0.8 0.1
v 1.1 0.8 0.1
v 1.4 0.8 0.1
v 1.8 0.8 0.1
v 2 0.8 0.1
v -2 0.8 0
v -1.7 0.8 0
v -1.4 0.8 0
v -1.1 0.8 0
v -1 0.8 0
v -0.7 0.8 0
v -0.3 0.8 0
v 2.38419e-07 0.8 0
v 0.4 0.8 0
v 0.7 0.8 0
v 1.1 0.8 0
v 1.4 0.8 0
v 1.8 0.8 0
v 2 0.8 0
v -2 1.5 0.1
v -1.8 1.5 0.1
v -1.5 1.5 0.1
v -1.1 1.5 0.1
v -0.8 1.5 0.1
v -0.4 1.5 0.1
v -0.0999999 1.5 0.1
v 0.3 1.5 0.1
v 0.6 1.5 0.1
v 1 1.5 0.1
v 1.3 1.5 0.1
v 1.7 1.5 0.1
v 2 1.5 0.1
v -2 1.5 0
v -1.8 1.5 0
v -1.5 1.5 0
v -1.4 1.5 0
v -1.1 1.5 0
v -0.8 1.5 0
v -0.4 1.5 0
v -0.0999999 1.5 0
v 0.3 1.5 0
v 0.6 1.5 0
v 1 1.5 0
v 1.1 1.5 0
v 1.3 1.5 0
v 1.4 1.5 0
v 1.7 1.5 0
v 2 1.5 0
v -1.5 0.1 0.1
v -1 0.1 0.1
v 1 0.1 0.1
v 1.5 0.1 0.1
v -1.4 0.1 0
v -1.1 0.1 0
v 1.1 0.1 0
v 1.4 0.1 0
v -1.4 0.1 -0.3
v -1.1 0.1 -0.3
v 1.1 0.1 -0.3
v 1.4 0.1 -0.3
v -1.5 0.1 -0.4
v -1 0.1 -0.4
v 1 0.1 -0.4
v 1.5 0.1 -0.4
v -2 1.1 0.1
v -1.9 1.1 0.1
v -1.5 1.1 0.1
v -1.2 1.1 0.1
v -0.8 1.1 0.1
v -0.5 1.1 0.1
v -0.0999999 1.1 0.1
v 0.2 1.1 0.1
v 0.6 1.1 0.1
v 0.9 1.1 0.1
v 1.3 1.1 0.1
v 1.6 1.1 0.1
v 2 1.1 0.1
v -2 1.1 0
v -1.9 1.1 0
v -1.5 1.1 0
v -1.4 1.1 0
v -1.2 1.1 0
v -1.1 1.1 0
v -0.8 1.1 0
v -0.5 1.1 0
v -0.0999999 1.1 0
v 0.2 1.1 0
v 0.6 1.1 0
v 0.9 1.1 0
v 1.1 1.1 0
v 1.3 1.1 0
v 1.4 1.1 0
v 1.6 1.1 0
v 2 1.1 0
v -2 1.8 0.1
v -1.6 1.8 0.1
v -1.3 1.8 0.1
v -0.9 1.8 0.1
v -0.6 1.8 0.1
v -0.2 1.8 0.1
v 0.1 1.8 0.1
v 0.5 1.8 0.1
v 0.8 1.8 0.1
v 1.2 1.8 0.1
v 1.5 1.8 0.1
v 1.9 1.8 0.1
v 2 1.8 0.1
v -2 1.8 0
v -1.6 1.8 0
v -1.4 1.8 0
v -1.3 1.8 0
v -1.1 1.8 0
v -0.9 1.8 0
v -0.6 1.8 0
v -0.2 1.8 0
v 0.1 1.8 0
v 0.5 1.8 0
v 0.8 1.8 0
v 1.1 1.8 0
v 1.2 1.8 0
v 1.4 1.8 0
v 1.5 1.8 0
v 1.9 1.8 0
v 2 1.8 0
v -1.4 2 0
v -1.1 2 0
v 1.1 2 0
v 1.4 2 0
v -1.4 2 -0.3
v -1.1 2 -0.3
v 1.1 2 -0.3
v 1.4 2 -0.3

# faces
f 3/3/1 2/3/1 1/3/1
f 4/3/1 2/3/1 3/3/1
f 5/1/1 4/1/1 3/1/1
f 6/1/1 4/1/1 5/1/1
f 9/3/1 8/3/1 7/3/1
f 10/3/1 8/3/1 9/3/1
f 13/2/1 12/2/1 11/2/1
f 14/2/1 12/2/1 13/2/1
f 17/2/1 16/2/1 15/2/1
f 18/2/1 16/2/1 17/2/1
f 19/2/1 16/2/1 18/2/1
f 20/2/1 16/2/1 19/2/1
f 21/2/1 16/2/1 20/2/1
f 22/2/1 16/2/1 21/2/1
f 23/2/1 16/2/1 22/2/1
f 26/2/1 25/2/1 24/2/1
f 27/2/1 25/2/1 26/2/1
f 30/2/1 29/2/1 28/2/1
f 31/2/1 29/2/1 30/2/1
f 32/2/1 29/2/1 31/2/1
f 33/2/1 29/2/1 32/2/1
f 34/2/1 29/2/1 33/2/1
f 35/2/1 29/2/1 34/2/1
f 36/2/1 29/2/1 35/2/1
f 37/2/2 38/2/2 39/2/2
f 39/2/2 38/2/2 40/2/2
f 40/2/2 38/2/2 41/2/2
f 41/2/2 38/2/2 42/2/2
f 42/2/2 38/2/2 43/2/2
f 43/2/2 38/2/2 44/2/2
f 44/2/2 38/2/2 45/2/2
f 46/2/2 47/2/2 48/2/2
f 48/2/2 47/2/2 49/2/2
f 50/2/2 51/2/2 52/2/2
f 52/2/2 51/2/2 53/2/2
f 53/2/2 51/2/2 54/2/2
f 54/2/2 51/2/2 55/2/2
f 55/2/2 51/2/2 56/2/2
f 56/2/2 51/2/2 57/2/2
f 57/2/2 51/2/2 58/2/2
f 58/2/2 51/2/2 59/2/2
f 60/2/2 61/2/2 62/2/2
f 62/2/2 61/2/2 63/2/2
f 64/1/2 65/1/2 66/1/2
f 66/1/2 65/1/2 67/1/2
f 66/3/2 67/3/2 68/3/2
f 68/3/2 67/3/2 69/3/2
f 70/1/2 71/1/2 72/1/2
f 72/1/2 71/1/2 73/1/2
f 79/3/3 75/3/3 74/3/3
f 79/1/3 76/1/3 75/1/3
f 80/1/3 76/1/3 79/1/3
f 81/3/3 78/3/3 77/3/3
f 82/3/3 78/3/3 81/3/3
f 83/3/3 80/3/3 79/3/3
f 83/3/3 79/3/3 74/3/3
f 84/3/3 80/3/3 83/3/3
f 85/3/3 78/3/3 82/3/3
f 85/1/3 82/1/3 81/1/3
f 86/3/3 78/3/3 85/3/3
f 87/3/3 80/3/3 84/3/3
f 87/1/3 84/1/3 83/1/3
f 88/3/3 80/3/3 87/3/3
f 89/3/3 78/3/3 86/3/3
f 89/1/3 86/1/3 85/1/3
f 90/3/3 78/3/3 89/3/3
f 93/3/3 80/3/3 88/3/3
f 93/1/3 88/1/3 87/1/3
f 94/3/3 80/3/3 93/3/3
f 95/1/3 85/1/3 81/1/3
f 95/1/3 89/1/3 85/1/3
f 95/1/3 90/1/3 89/1/3
f 96/1/3 90/1/3 95/1/3
f 97/1/3 94/1/3 93/1/3
f 97/1/3 87/1/3 83/1/3
f 97/1/3 93/1/3 87/1/3
f 98/1/3 94/1/3 97/1/3
f 99/1/3 90/1/3 96/1/3
f 99/3/3 96/3/3 95/3/3
f 100/1/3 90/1/3 99/1/3
f 101/1/3 94/1/3 98/1/3
f 101/3/3 98/3/3 97/3/3
f 102/1/3 94/1/3 101/1/3
f 103/1/3 90/1/3 100/1/3
f 103/3/3 100/3/3 99/3/3
f 104/1/3 90/1/3 103/1/3
f 105/1/3 94/1/3 102/1/3
f 105/3/3 102/3/3 101/3/3
f 106/1/3 94/1/3 105/1/3
f 107/3/3 104/3/3 103/3/3
f 107/3/3 99/3/3 95/3/3
f 107/3/3 103/3/3 99/3/3
f 108/3/3 104/3/3 107/3/3
f 109/2/3 92/2/3 91/2/3
f 110/2/3 92/2/3 109/2/3
f 111/3/3 106/3/3 105/3/3
f 111/3/3 105/3/3 101/3/3
f 111/3/3 101/3/3 97/3/3
f 112/3/3 106/3/3 111/3/3
f 113/3/3 104/3/3 108/3/3
f 113/1/3 108/1/3 107/1/3
f 114/3/3 104/3/3 113/3/3
f 115/3/3 106/3/3 112/3/3
f 115/1/3 112/1/3 111/1/3
f 116/3/3 106/3/3 115/3/3
f 117/3/3 104/3/3 114/3/3
f 117/1/3 114/1/3 113/1/3
f 118/3/3 104/3/3 117/3/3
f 119/3/3 106/3/3 116/3/3
f 119/1/3 116/1/3 115/1/3
f 120/3/3 106/3/3 119/3/3
f 121/1/3 118/1/3 117/1/3
f 121/1/3 113/1/3 107/1/3
f 121/1/3 117/1/3 113/1/3
f 122/1/3 118/1/3 121/1/3
f 123/1/3 120/1/3 119/1/3
f 123/1/3 119/1/3 115/1/3
f 123/1/3 115/1/3 111/1/3
f 124/1/3 120/1/3 123/1/3
f 125/1/3 118/1/3 122/1/3
f 125/3/3 122/3/3 121/3/3
f 126/1/3 118/1/3 125/1/3
f 127/1/3 120/1/3 124/1/3
f 127/3/3 124/3/3 123/3/3
f 128/1/3 120/1/3 127/1/3
f 129/1/3 118/1/3 126/1/3
f 129/3/3 126/3/3 125/3/3
f 130/1/3 118/1/3 129/1/3
f 131/1/3 120/1/3 128/1/3
f 131/3/3 128/3/3 127/3/3
f 132/1/3 120/1/3 131/1/3
f 133/3/3 130/3/3 129/3/3
f 133/3/3 125/3/3 121/3/3
f 133/3/3 129/3/3 125/3/3
f 134/3/3 130/3/3 133/3/3
f 135/3/3 132/3/3 131/3/3
f 135/3/3 131/3/3 127/3/3
f 135/3/3 127/3/3 123/3/3
f 136/3/3 132/3/3 135/3/3
f 137/3/3 130/3/3 134/3/3
f 137/1/3 134/1/3 133/1/3
f 138/3/3 130/3/3 137/3/3
f 139/3/3 132/3/3 136/3/3
f 139/1/3 136/1/3 135/1/3
f 140/3/3 132/3/3 139/3/3
f 141/3/3 130/3/3 138/3/3
f 141/1/3 138/1/3 137/1/3
f 142/3/3 130/3/3 141/3/3
f 143/3/3 132/3/3 140/3/3
f 143/1/3 140/1/3 139/1/3
f 144/3/3 132/3/3 143/3/3
f 145/1/3 142/1/3 141/1/3
f 145/1/3 137/1/3 133/1/3
f 145/1/3 141/1/3 137/1/3
f 146/1/3 142/1/3 145/1/3
f 147/1/3 144/1/3 143/1/3
f 147/1/3 143/1/3 139/1/3
f 147/1/3 139/1/3 135/1/3
f 148/1/3 144/1/3 147/1/3
f 149/1/3 142/1/3 146/1/3
f 149/3/3 146/3/3 145/3/3
f 150/1/3 142/1/3 149/1/3
f 151/1/3 144/1/3 148/1/3
f 151/3/3 148/3/3 147/3/3
f 152/1/3 144/1/3 151/1/3
f 153/1/3 142/1/3 150/1/3
f 153/3/3 150/3/3 149/3/3
f 154/1/3 142/1/3 153/1/3
f 155/1/3 144/1/3 152/1/3
f 155/3/3 152/3/3 151/3/3
f 156/1/3 144/1/3 155/1/3
f 157/3/3 154/3/3 153/3/3
f 157/3/3 149/3/3 145/3/3
f 157/3/3 153/3/3 149/3/3
f 158/3/3 154/3/3 157/3/3
f 159/3/3 156/3/3 155/3/3
f 159/3/3 155/3/3 151/3/3
f 159/3/3 151/3/3 147/3/3
f 160/3/3 156/3/3 159/3/3
f 161/3/3 154/3/3 158/3/3
f 161/1/3 158/1/3 157/1/3
f 162/3/3 154/3/3 161/3/3
f 163/3/3 156/3/3 160/3/3
f 163/1/3 160/1/3 159/1/3
f 164/3/3 156/3/3 163/3/3
f 165/3/3 154/3/3 162/3/3
f 165/1/3 162/1/3 161/1/3
f 166/3/3 154/3/3 165/3/3
f 167/3/3 156/3/3 164/3/3
f 167/1/3 164/1/3 163/1/3
f 168/3/3 156/3/3 167/3/3
f 169/1/3 166/1/3 165/1/3
f 169/1/3 161/1/3 157/1/3
f 169/1/3 165/1/3 161/1/3
f 170/1/3 166/1/3 169/1/3
f 171/1/3 168/1/3 167/1/3
f 171/1/3 167/1/3 163/1/3
f 171/1/3 163/1/3 159/1/3
f 172/1/3 168/1/3 171/1/3
f 173/1/3 166/1/3 170/1/3
f 173/3/3 170/3/3 169/3/3
f 174/1/3 166/1/3 173/1/3
f 175/1/3 168/1/3 172/1/3
f 175/3/3 172/3/3 171/3/3
f 176/1/3 168/1/3 175/1/3
f 177/1/3 166/1/3 174/1/3
f 177/3/3 174/3/3 173/3/3
f 178/1/3 166/1/3 177/1/3
f 179/1/3 168/1/3 176/1/3
f 179/3/3 176/3/3 175/3/3
f 180/1/3 168/1/3 179/1/3
f 183/3/3 178/3/3 177/3/3
f 183/3/3 173/3/3 169/3/3
f 183/3/3 177/3/3 173/3/3
f 184/3/3 178/3/3 183/3/3
f 185/3/3 180/3/3 179/3/3
f 185/3/3 175/3/3 171/3/3
f 185/3/3 179/3/3 175/3/3
f 186/3/3 180/3/3 185/3/3
f 187/3/3 178/3/3 184/3/3
f 187/1/3 184/1/3 183/1/3
f 188/3/3 178/3/3 187/3/3
f 189/3/3 180/3/3 186/3/3
f 189/1/3 186/1/3 185/1/3
f 190/3/3 180/3/3 189/3/3
f 191/3/3 178/3/3 188/3/3
f 191/1/3 188/1/3 187/1/3
f 192/3/3 178/3/3 191/3/3
f 193/3/3 180/3/3 190/3/3
f 193/1/3 190/1/3 189/1/3
f 194/3/3 180/3/3 193/3/3
f 195/1/3 192/1/3 191/1/3
f 195/1/3 187/1/3 183/1/3
f 195/1/3 191/1/3 187/1/3
f 196/1/3 192/1/3 195/1/3
f 197/1/3 194/1/3 193/1/3
f 197/1/3 193/1/3 189/1/3
f 197/1/3 189/1/3 185/1/3
f 198/1/3 194/1/3 197/1/3
f 199/1/3 192/1/3 196/1/3
f 199/3/3 196/3/3 195/3/3
f 200/1/3 192/1/3 199/1/3
f 201/2/3 182/2/3 181/2/3
f 202/2/3 182/2/3 201/2/3
f 203/1/3 194/1/3 198/1/3
f 203/3/3 198/3/3 197/3/3
f 204/1/3 194/1/3 203/1/3
f 205/1/3 192/1/3 200/1/3
f 205/3/3 200/3/3 199/3/3
f 206/1/3 192/1/3 205/1/3
f 207/1/3 194/1/3 204/1/3
f 207/3/3 204/3/3 203/3/3
f 208/1/3 194/1/3 207/1/3
f 209/3/3 206/3/3 205/3/3
f 209/3/3 199/3/3 195/3/3
f 209/3/3 205/3/3 199/3/3
f 210/3/3 206/3/3 209/3/3
f 211/3/3 208/3/3 207/3/3
f 211/3/3 207/3/3 203/3/3
f 211/3/3 203/3/3 197/3/3
f 212/3/3 208/3/3 211/3/3
f 213/3/3 206/3/3 210/3/3
f 213/1/3 210/1/3 209/1/3
f 214/3/3 206/3/3 213/3/3
f 215/3/3 208/3/3 212/3/3
f 215/1/3 212/1/3 211/1/3
f 216/3/3 208/3/3 215/3/3
f 217/3/3 206/3/3 214/3/3
f 217/1/3 214/1/3 213/1/3
f 218/3/3 206/3/3 217/3/3
f 219/1/3 216/1/3 215/1/3
f 219/1/3 215/1/3 211/1/3
f 220/3/3 208/3/3 216/3/3
f 220/1/3 216/1/3 219/1/3
f 221/3/3 208/3/3 220/3/3
f 222/1/3 213/1/3 209/1/3
f 222/1/3 218/1/3 217/1/3
f 222/1/3 217/1/3 213/1/3
f 223/1/3 218/1/3 222/1/3
f 230/2/3 229/2/3 228/2/3
f 231/2/3 227/2/3 226/2/3
f 232/2/3 225/2/3 224/2/3
f 233/2/3 225/2/3 232/2/3
f 234/2/3 227/2/3 231/2/3
f 235/2/3 227/2/3 234/2/3
f 236/2/3 229/2/3 230/2/3
f 237/2/3 229/2/3 236/2/3
f 244/2/3 243/2/3 242/2/3
f 245/2/3 241/2/3 240/2/3
f 246/2/3 241/2/3 245/2/3
f 247/2/3 239/2/3 238/2/3
f 248/2/3 239/2/3 247/2/3
f 249/2/3 246/2/3 245/2/3
f 250/2/3 246/2/3 249/2/3
f 251/2/3 243/2/3 244/2/3
f 252/2/3 243/2/3 251/2/3
f 253/3/4 254/3/4 258/3/4
f 254/1/4 255/1/4 258/1/4
f 258/1/4 255/1/4 259/1/4
f 256/3/4 257/3/4 260/3/4
f 260/3/4 257/3/4 261/3/4
f 258/3/4 259/3/4 262/3/4
f 253/3/4 258/3/4 262/3/4
f 262/3/4 259/3/4 263/3/4
f 261/3/4 257/3/4 264/3/4
f 260/1/4 261/1/4 264/1/4
f 264/3/4 257/3/4 265/3/4
f 263/3/4 259/3/4 266/3/4
f 262/1/4 263/1/4 266/1/4
f 266/3/4 259/3/4 267/3/4
f 265/3/4 257/3/4 268/3/4
f 264/1/4 265/1/4 268/1/4
f 268/3/4 257/3/4 269/3/4
f 267/3/4 259/3/4 270/3/4
f 266/1/4 267/1/4 270/1/4
f 270/3/4 259/3/4 271/3/4
f 268/1/4 269/1/4 272/1/4
f 260/1/4 264/1/4 272/1/4
f 264/1/4 268/1/4 272/1/4
f 272/1/4 269/1/4 273/1/4
f 270/1/4 271/1/4 274/1/4
f 266/1/4 270/1/4 274/1/4
f 262/1/4 266/1/4 274/1/4
f 274/1/4 271/1/4 275/1/4
f 272/3/4 273/3/4 276/3/4
f 273/1/4 269/1/4 277/1/4
f 276/3/4 273/3/4 277/3/4
f 277/1/4 269/1/4 278/1/4
f 279/3/4 280/3/4 284/3/4
f 284/3/4 280/3/4 285/3/4
f 282/3/4 283/3/4 286/3/4
f 281/1/4 282/1/4 286/1/4
f 286/3/4 283/3/4 287/3/4
f 285/3/4 280/3/4 288/3/4
f 284/1/4 285/1/4 288/1/4
f 288/3/4 280/3/4 289/3/4
f 287/3/4 283/3/4 290/3/4
f 286/1/4 287/1/4 290/1/4
f 290/3/4 283/3/4 291/3/4
f 289/3/4 280/3/4 292/3/4
f 288/1/4 289/1/4 292/1/4
f 292/3/4 280/3/4 293/3/4
f 290/1/4 291/1/4 294/1/4
f 281/1/4 286/1/4 294/1/4
f 286/1/4 290/1/4 294/1/4
f 294/1/4 291/1/4 295/1/4
f 292/1/4 293/1/4 296/1/4
f 288/1/4 292/1/4 296/1/4
f 284/1/4 288/1/4 296/1/4
f 296/1/4 293/1/4 297/1/4
f 295/1/4 291/1/4 298/1/4
f 294/3/4 295/3/4 298/3/4
f 298/1/4 291/1/4 299/1/4
f 297/1/4 293/1/4 300/1/4
f 296/3/4 297/3/4 300/3/4
f 300/1/4 293/1/4 301/1/4
f 299/1/4 291/1/4 302/1/4
f 298/3/4 299/3/4 302/3/4
f 302/1/4 291/1/4 303/1/4
f 301/1/4 293/1/4 304/1/4
f 300/3/4 301/3/4 304/3/4
f 304/1/4 293/1/4 305/1/4
f 302/3/4 303/3/4 306/3/4
f 294/3/4 298/3/4 306/3/4
f 298/3/4 302/3/4 306/3/4
f 306/3/4 303/3/4 307/3/4
f 304/3/4 305/3/4 308/3/4
f 300/3/4 304/3/4 308/3/4
f 296/3/4 300/3/4 308/3/4
f 308/3/4 305/3/4 309/3/4
f 307/3/4 303/3/4 310/3/4
f 306/1/4 307/1/4 310/1/4
f 310/3/4 303/3/4 311/3/4
f 309/3/4 305/3/4 312/3/4
f 308/1/4 309/1/4 312/1/4
f 312/3/4 305/3/4 313/3/4
f 311/3/4 303/3/4 314/3/4
f 310/1/4 311/1/4 314/1/4
f 314/3/4 303/3/4 315/3/4
f 313/3/4 305/3/4 316/3/4
f 312/1/4 313/1/4 316/1/4
f 316/3/4 305/3/4 317/3/4
f 314/1/4 315/1/4 318/1/4
f 306/1/4 310/1/4 318/1/4
f 310/1/4 314/1/4 318/1/4
f 318/1/4 315/1/4 319/1/4
f 316/1/4 317/1/4 320/1/4
f 312/1/4 316/1/4 320/1/4
f 308/1/4 312/1/4 320/1/4
f 320/1/4 317/1/4 321/1/4
f 319/1/4 315/1/4 322/1/4
f 318/3/4 319/3/4 322/3/4
f 322/1/4 315/1/4 323/1/4
f 321/1/4 317/1/4 324/1/4
f 320/3/4 321/3/4 324/3/4
f 324/1/4 317/1/4 325/1/4
f 323/1/4 315/1/4 326/1/4
f 322/3/4 323/3/4 326/3/4
f 326/1/4 315/1/4 327/1/4
f 325/1/4 317/1/4 328/1/4
f 324/3/4 325/3/4 328/3/4
f 328/1/4 317/1/4 329/1/4
f 326/3/4 327/3/4 330/3/4
f 318/3/4 322/3/4 330/3/4
f 322/3/4 326/3/4 330/3/4
f 330/3/4 327/3/4 331/3/4
f 328/3/4 329/3/4 332/3/4
f 324/3/4 328/3/4 332/3/4
f 320/3/4 324/3/4 332/3/4
f 332/3/4 329/3/4 333/3/4
f 331/3/4 327/3/4 334/3/4
f 330/1/4 331/1/4 334/1/4
f 334/3/4 327/3/4 335/3/4
f 333/3/4 329/3/4 336/3/4
f 332/1/4 333/1/4 336/1/4
f 336/3/4 329/3/4 337/3/4
f 335/3/4 327/3/4 338/3/4
f 334/1/4 335/1/4 338/1/4
f 338/3/4 327/3/4 339/3/4
f 337/3/4 329/3/4 340/3/4
f 336/1/4 337/1/4 340/1/4
f 340/3/4 329/3/4 341/3/4
f 338/1/4 339/1/4 342/1/4
f 330/1/4 334/1/4 342/1/4
f 334/1/4 338/1/4 342/1/4
f 342/1/4 339/1/4 343/1/4
f 340/1/4 341/1/4 344/1/4
f 336/1/4 340/1/4 344/1/4
f 332/1/4 336/1/4 344/1/4
f 344/1/4 341/1/4 345/1/4
f 343/1/4 339/1/4 346/1/4
f 342/3/4 343/3/4 346/3/4
f 346/1/4 339/1/4 347/1/4
f 345/1/4 341/1/4 348/1/4
f 344/3/4 345/3/4 348/3/4
f 348/1/4 341/1/4 349/1/4
f 347/1/4 339/1/4 350/1/4
f 346/3/4 347/3/4 350/3/4
f 350/1/4 339/1/4 351/1/4
f 349/1/4 341/1/4 352/1/4
f 348/3/4 349/3/4 352/3/4
f 352/1/4 341/1/4 353/1/4
f 350/3/4 351/3/4 354/3/4
f 342/3/4 346/3/4 354/3/4
f 346/3/4 350/3/4 354/3/4
f 354/3/4 351/3/4 355/3/4
f 352/3/4 353/3/4 356/3/4
f 348/3/4 352/3/4 356/3/4
f 344/3/4 348/3/4 356/3/4
f 356/3/4 353/3/4 357/3/4
f 354/1/4 355/1/4 358/1/4
f 355/3/4 351/3/4 359/3/4
f 358/1/4 355/1/4 359/1/4
f 359/3/4 351/3/4 360/3/4
f 361/3/4 362/3/4 367/3/4
f 362/1/4 363/1/4 367/1/4
f 367/1/4 363/1/4 368/1/4
f 365/1/4 366/1/4 369/1/4
f 364/3/4 365/3/4 369/3/4
f 369/1/4 366/1/4 370/1/4
f 368/1/4 363/1/4 371/1/4
f 367/3/4 368/3/4 371/3/4
f 371/1/4 363/1/4 372/1/4
f 369/3/4 370/3/4 373/3/4
f 364/3/4 369/3/4 373/3/4
f 373/3/4 370/3/4 374/3/4
f 371/3/4 372/3/4 375/3/4
f 361/3/4 367/3/4 375/3/4
f 367/3/4 371/3/4 375/3/4
f 375/3/4 372/3/4 376/3/4
f 374/3/4 370/3/4 377/3/4
f 373/1/4 374/1/4 377/1/4
f 377/3/4 370/3/4 378/3/4
f 376/3/4 372/3/4 379/3/4
f 375/1/4 376/1/4 379/1/4
f 379/3/4 372/3/4 380/3/4
f 378/3/4 370/3/4 381/3/4
f 377/1/4 378/1/4 381/1/4
f 381/3/4 370/3/4 382/3/4
f 379/1/4 380/1/4 383/1/4
f 375/1/4 379/1/4 383/1/4
f 380/3/4 372/3/4 384/3/4
f 383/1/4 380/1/4 384/1/4
f 384/3/4 372/3/4 385/3/4
f 373/1/4 377/1/4 386/1/4
f 381/1/4 382/1/4 386/1/4
f 377/1/4 381/1/4 386/1/4
f 386/1/4 382/1/4 387/1/4
f 388/2/4 389/2/4 390/2/4
f 390/2/4 389/2/4 391/2/4
f 392/2/4 393/2/4 394/2/4
f 394/2/4 393/2/4 395/2/4
f 396/2/4 397/2/4 398/2/4
f 398/2/4 397/2/4 399/2/4
f 400/2/4 401/2/4 402/2/4
f 402/2/4 401/2/4 403/2/4
f 408/2/5 405/2/5 404/2/5
f 409/2/5 405/2/5 408/2/5
f 410/2/5 407/2/5 406/2/5
f 411/2/5 407/2/5 410/2/5
f 425/3/5 413/3/5 412/3/5
f 426/1/5 414/1/5 413/1/5
f 426/3/5 413/3/5 425/3/5
f 427/3/5 415/3/5 414/3/5
f 427/1/5 414/1/5 426/1/5
f 428/3/5 415/3/5 427/3/5
f 429/1/5 416/1/5 415/1/5
f 429/3/5 415/3/5 428/3/5
f 430/3/5 417/3/5 416/3/5
f 430/1/5 416/1/5 429/1/5
f 431/1/5 418/1/5 417/1/5
f 431/3/5 417/3/5 430/3/5
f 432/3/5 419/3/5 418/3/5
f 432/1/5 418/1/5 431/1/5
f 433/1/5 420/1/5 419/1/5
f 433/3/5 419/3/5 432/3/5
f 434/3/5 421/3/5 420/3/5
f 434/1/5 420/1/5 433/1/5
f 435/1/5 422/1/5 421/1/5
f 435/3/5 421/3/5 434/3/5
f 436/3/5 423/3/5 422/3/5
f 436/1/5 422/1/5 435/1/5
f 437/1/5 424/1/5 423/1/5
f 437/3/5 423/3/5 436/3/5
f 438/1/5 424/1/5 437/1/5
f 452/3/5 440/3/5 439/3/5
f 453/1/5 441/1/5 440/1/5
f 453/3/5 440/3/5 452/3/5
f 454/3/5 442/3/5 441/3/5
f 454/1/5 441/1/5 453/1/5
f 455/3/5 442/3/5 454/3/5
f 456/1/5 443/1/5 442/1/5
f 456/3/5 442/3/5 455/3/5
f 457/3/5 444/3/5 443/3/5
f 457/1/5 443/1/5 456/1/5
f 458/1/5 445/1/5 444/1/5
f 458/3/5 444/3/5 457/3/5
f 459/3/5 446/3/5 445/3/5
f 459/1/5 445/1/5 458/1/5
f 460/1/5 447/1/5 446/1/5
f 460/3/5 446/3/5 459/3/5
f 461/3/5 448/3/5 447/3/5
f 461/1/5 447/1/5 460/1/5
f 462/1/5 449/1/5 448/1/5
f 462/3/5 448/3/5 461/3/5
f 463/1/5 449/1/5 462/1/5
f 464/3/5 450/3/5 449/3/5
f 464/1/5 449/1/5 463/1/5
f 465/3/5 450/3/5 464/3/5
f 466/1/5 451/1/5 450/1/5
f 466/3/5 450/3/5 465/3/5
f 467/1/5 451/1/5 466/1/5
f 468/2/6 469/2/6 472/2/6
f 472/2/6 469/2/6 473/2/6
f 470/2/6 471/2/6 474/2/6
f 474/2/6 471/2/6 475/2/6
f 468/2/6 472/2/6 476/2/6
f 473/2/6 469/2/6 477/2/6
f 470/2/6 474/2/6 478/2/6
f 475/2/6 471/2/6 479/2/6
f 468/2/6 476/2/6 480/2/6
f 476/2/6 477/2/6 480/2/6
f 477/2/6 469/2/6 481/2/6
f 480/2/6 477/2/6 481/2/6
f 478/2/6 479/2/6 482/2/6
f 470/2/6 478/2/6 482/2/6
f 479/2/6 471/2/6 483/2/6
f 482/2/6 479/2/6 483/2/6
f 484/1/6 485/1/6 497/1/6
f 485/3/6 486/3/6 498/3/6
f 497/1/6 485/1/6 498/1/6
f 486/1/6 487/1/6 499/1/6
f 498/3/6 486/3/6 499/3/6
f 499/1/6 487/1/6 500/1/6
f 487/3/6 488/3/6 501/3/6
f 500/1/6 487/1/6 501/1/6
f 501/3/6 488/3/6 502/3/6
f 488/1/6 489/1/6 503/1/6
f 502/3/6 488/3/6 503/3/6
f 489/3/6 490/3/6 504/3/6
f 503/1/6 489/1/6 504/1/6
f 490/1/6 491/1/6 505/1/6
f 504/3/6 490/3/6 505/3/6
f 491/3/6 492/3/6 506/3/6
f 505/1/6 491/1/6 506/1/6
f 492/1/6 493/1/6 507/1/6
f 506/3/6 492/3/6 507/3/6
f 493/3/6 494/3/6 508/3/6
f 507/1/6 493/1/6 508/1/6
f 508/3/6 494/3/6 509/3/6
f 494/1/6 495/1/6 510/1/6
f 509/3/6 494/3/6 510/3/6
f 510/1/6 495/1/6 511/1/6
f 495/3/6 496/3/6 512/3/6
f 511/1/6 495/1/6 512/1/6
f 512/3/6 496/3/6 513/3/6
f 514/3/6 515/3/6 527/3/6
f 515/1/6 516/1/6 528/1/6
f 527/3/6 515/3/6 528/3/6
f 528/1/6 516/1/6 529/1/6
f 516/3/6 517/3/6 530/3/6
f 529/1/6 516/1/6 530/1/6
f 530/3/6 517/3/6 531/3/6
f 517/1/6 518/1/6 532/1/6
f 531/3/6 517/3/6 532/3/6
f 518/3/6 519/3/6 533/3/6
f 532/1/6 518/1/6 533/1/6
f 519/1/6 520/1/6 534/1/6
f 533/3/6 519/3/6 534/3/6
f 520/3/6 521/3/6 535/3/6
f 534/1/6 520/1/6 535/1/6
f 521/1/6 522/1/6 536/1/6
f 535/3/6 521/3/6 536/3/6
f 522/3/6 523/3/6 537/3/6
f 536/1/6 522/1/6 537/1/6
f 537/3/6 523/3/6 538/3/6
f 523/1/6 524/1/6 539/1/6
f 538/3/6 523/3/6 539/3/6
f 539/1/6 524/1/6 540/1/6
f 524/3/6 525/3/6 541/3/6
f 540/1/6 524/1/6 541/1/6
f 525/1/6 526/1/6 542/1/6
f 541/3/6 525/3/6 542/3/6
f 542/1/6 526/1/6 543/1/6
f 544/2/6 545/2/6 548/2/6
f 548/2/6 545/2/6 549/2/6
f 546/2/6 547/2/6 550/2/6
f 550/2/6 547/2/6 551/2/6
